<svg width="39" height="39" viewBox="0 0 39 39" fill="none" xmlns="http://www.w3.org/2000/svg">
<circle cx="19.5" cy="19.5" r="19.5" fill="#9E00FF"/>
<mask id="mask0_22_23" style="mask-type:alpha" maskUnits="userSpaceOnUse" x="0" y="0" width="39" height="39">
<circle cx="19.5" cy="19.5" r="19.5" fill="#9E00FF"/>
</mask>
<g mask="url(#mask0_22_23)">
<path fill-rule="evenodd" clip-rule="evenodd" d="M22.5272 7.58816C22.8759 7.78043 23.047 8.18309 22.942 8.56401L20.6366 16.9242H29.0496C29.3953 16.9242 29.7081 17.127 29.8459 17.4406C29.9836 17.7542 29.9202 18.1187 29.6843 18.3686L17.5302 31.2478C17.2578 31.5364 16.8215 31.6041 16.4728 31.4119C16.1241 31.2196 15.9529 30.8169 16.058 30.436L18.3634 22.0758H9.95035C9.60466 22.0758 9.29191 21.873 9.15413 21.5594C9.01636 21.2459 9.07981 20.8813 9.31569 20.6314L21.4698 7.75226C21.7422 7.46361 22.1785 7.3959 22.5272 7.58816Z" fill="#0F172A"/>
</g>
</svg>
